<svg xmlns="http://www.w3.org/2000/svg" width="304.17" height="101.37" viewBox="0 0 304.17 101.37"><defs><style>.a{fill:#ed1c24;}.b{fill:#be1e2d;}.c{fill:#00aeef;}.d{fill:#20507f;}.e{fill:#1c75bc;}.f{fill:#f7941e;}.g{fill:#fff200;}.h{fill:#a7a9ac;}.i{fill:#808285;}.j{fill:#6d6e71;}</style></defs><title>sensilab_stressmap_logo</title><polygon class="a" points="46.8 54.09 46.8 81.11 35.1 74.35 35.1 60.84 46.8 54.09"/><polygon class="b" points="35.1 47.34 46.8 54.09 11.7 74.35 11.7 60.84 35.1 47.34"/><polygon class="b" points="35.1 74.35 46.8 81.11 11.7 101.37 0 94.62 35.1 74.35"/><polygon class="a" points="187.18 54.09 187.18 81.11 175.48 74.35 175.48 60.84 187.18 54.09"/><polygon class="b" points="175.48 47.34 187.18 54.09 152.08 74.35 152.08 60.84 175.48 47.34"/><polygon class="b" points="175.48 74.35 187.18 81.11 152.08 101.37 140.39 94.62 175.48 74.35"/><polygon class="c" points="81.89 47.34 46.8 27.07 58.49 20.32 93.59 40.58 81.89 47.34"/><polygon class="d" points="58.49 47.34 46.8 54.09 46.8 27.07 58.49 33.83 58.49 47.34"/><polygon class="c" points="81.89 74.35 46.8 54.09 58.49 47.34 81.89 60.84 81.89 74.35"/><polygon class="e" points="93.59 67.6 93.59 40.58 81.89 47.34 81.89 74.35 93.59 67.6"/><polygon class="d" points="58.49 74.35 58.49 60.84 46.8 54.09 46.8 81.11 58.49 74.35"/><polygon class="c" points="93.59 94.62 58.49 74.35 46.8 81.11 81.89 101.37 93.59 94.62"/><polygon class="f" points="105.29 101.37 93.59 94.62 93.59 40.58 105.29 47.34 105.29 101.37"/><polygon class="g" points="128.69 20.32 93.59 40.58 105.29 47.34 140.39 27.07 128.69 20.32"/><polygon class="f" points="128.69 87.86 128.69 33.83 140.39 27.07 140.39 94.62 128.69 87.86"/><polygon class="a" points="0 40.58 11.7 47.34 11.7 74.35 0 67.6 0 40.58"/><polygon class="a" points="0 40.58 35.1 20.32 46.8 27.07 11.7 47.34 0 40.58"/><polygon class="a" points="140.39 40.58 152.08 47.34 152.08 74.35 140.39 67.6 140.39 40.58"/><polygon class="a" points="140.39 40.58 175.48 20.32 187.18 27.07 152.08 47.34 140.39 40.58"/><polygon class="h" points="210.58 27.02 222.28 20.26 257.37 40.53 245.68 47.28 210.58 27.02"/><polygon class="i" points="245.68 101.31 245.68 47.28 257.37 40.53 257.37 94.56 245.68 101.31"/><polygon class="h" points="222.28 47.28 245.68 60.79 245.68 74.3 210.58 54.03 222.28 47.28"/><polygon class="j" points="222.28 74.3 222.28 60.79 210.58 54.03 210.58 81.05 222.28 74.3"/><polygon class="h" points="245.68 87.81 222.28 74.3 210.58 81.05 245.68 101.31 245.68 87.81"/><polygon class="h" points="257.37 13.51 269.07 20.26 269.07 101.31 257.37 94.56 257.37 13.51"/><polygon class="i" points="292.47 74.3 269.07 87.81 269.07 101.31 304.17 81.05 292.47 74.3"/><polygon class="h" points="292.47 60.79 292.47 74.3 304.17 81.05 304.17 54.03 292.47 60.79"/><polygon class="i" points="292.47 47.28 269.07 60.79 269.07 74.3 304.17 54.03 292.47 47.28"/><polygon class="c" points="198.88 6.75 187.18 0 187.18 13.51 198.88 20.26 198.88 6.75"/><polygon class="c" points="187.18 81.11 187.18 26.93 198.88 33.68 198.88 87.86 187.18 81.11"/><polygon class="h" points="210.58 0 198.88 6.75 198.88 87.86 210.58 81.05 210.58 0"/></svg>